<svg width="78" height="40" viewBox="0 0 78 40" fill="none" xmlns="http://www.w3.org/2000/svg">
<path d="M15 10C14.448 10 14 10.448 14 11V13C14 13.552 14.448 14 15 14H25C25.552 14 26 13.552 26 13V11C26 10.448 25.552 10 25 10H15ZM13 16C11.35 16 10 17.35 10 19V23C10 24.105 10.895 25 12 25H14V27C14 28.105 14.895 29 16 29H24C25.105 29 26 28.105 26 27V25H28C29.105 25 30 24.105 30 23V19C30 17.35 28.65 16 27 16H13ZM27 18C27.6 18 28 18.4 28 19C28 19.6 27.6 20 27 20C26.4 20 26 19.6 26 19C26 18.4 26.4 18 27 18ZM16.5 22H23.5C23.776 22 24 22.224 24 22.5V26.5C24 26.776 23.776 27 23.5 27H16.5C16.224 27 16 26.776 16 26.5V22.5C16 22.224 16.224 22 16.5 22Z" fill="#272343"/>
<path d="M41.134 25.5V15.896H45.922C47.966 15.896 48.974 17.086 48.974 18.892C48.974 20.726 47.84 21.944 45.866 21.944H42.702V25.5H41.134ZM42.702 20.6H45.796C46.776 20.6 47.392 19.956 47.392 18.906C47.392 17.856 46.846 17.24 45.796 17.24H42.702V20.6ZM50.2759 25.5V18.136H51.4799L51.6059 19.326H51.6899C51.9419 18.626 52.3899 17.968 53.3559 17.968C53.6359 17.968 53.9019 18.038 54.0279 18.08V19.452H53.5379C52.3199 19.452 51.7319 20.236 51.7319 21.552V25.5H50.2759ZM55.1157 16.862V15.378H56.5717V16.862H55.1157ZM55.1157 25.5V18.136H56.5717V25.5H55.1157ZM58.4517 25.5V18.136H59.6557L59.7817 19.186H59.8797C60.4257 18.388 61.2237 17.968 62.2877 17.968C63.6877 17.968 64.6537 18.626 64.6537 20.474V25.5H63.1977V20.698C63.1977 19.564 62.6097 19.242 61.7417 19.242C60.7337 19.242 59.9077 20.026 59.9077 21.188V25.5H58.4517ZM68.3111 25.668C67.0511 25.668 66.6731 24.842 66.6731 23.974V19.34H65.7491V18.136H66.7011L66.9671 16.078H68.1291V18.136H69.4591V19.34H68.1291V23.806C68.1291 24.24 68.2971 24.464 68.7311 24.464H69.4591V25.444C69.1791 25.57 68.6751 25.668 68.3111 25.668Z" fill="#272343"/>
</svg>
